<svg width="900" height="550" xmlns="http://www.w3.org/2000/svg">
<rect width="900" height="550" fill="#121212"/>
<line x1="120" y1="520" x2="880" y2="520" stroke="#e0e0e0" stroke-width="1" opacity="1"/>
<line x1="120" y1="20" x2="120" y2="520" stroke="#e0e0e0" stroke-width="1" opacity="1"/>
<line x1="120.0" y1="520" x2="120.0" y2="525" stroke="#e0e0e0" stroke-width="1" opacity="1"/>
<text fill="#e0e0e0" x="120.0" y="540" text-anchor="middle" font-size="12" opacity="1">0.0</text>
<line x1="120.0" y1="20" x2="120.0" y2="520" stroke="#444444" stroke-width="1" opacity="1" stroke-dasharray="4,4"/>
<line x1="272.0" y1="520" x2="272.0" y2="525" stroke="#e0e0e0" stroke-width="1" opacity="1"/>
<text fill="#e0e0e0" x="272.0" y="540" text-anchor="middle" font-size="12" opacity="1">2.0</text>
<line x1="272.0" y1="20" x2="272.0" y2="520" stroke="#444444" stroke-width="1" opacity="1" stroke-dasharray="4,4"/>
<line x1="424.0" y1="520" x2="424.0" y2="525" stroke="#e0e0e0" stroke-width="1" opacity="1"/>
<text fill="#e0e0e0" x="424.0" y="540" text-anchor="middle" font-size="12" opacity="1">3.9</text>
<line x1="424.0" y1="20" x2="424.0" y2="520" stroke="#444444" stroke-width="1" opacity="1" stroke-dasharray="4,4"/>
<line x1="576.0" y1="520" x2="576.0" y2="525" stroke="#e0e0e0" stroke-width="1" opacity="1"/>
<text fill="#e0e0e0" x="576.0" y="540" text-anchor="middle" font-size="12" opacity="1">5.9</text>
<line x1="576.0" y1="20" x2="576.0" y2="520" stroke="#444444" stroke-width="1" opacity="1" stroke-dasharray="4,4"/>
<line x1="728.0" y1="520" x2="728.0" y2="525" stroke="#e0e0e0" stroke-width="1" opacity="1"/>
<text fill="#e0e0e0" x="728.0" y="540" text-anchor="middle" font-size="12" opacity="1">7.8</text>
<line x1="728.0" y1="20" x2="728.0" y2="520" stroke="#444444" stroke-width="1" opacity="1" stroke-dasharray="4,4"/>
<line x1="880.0" y1="520" x2="880.0" y2="525" stroke="#e0e0e0" stroke-width="1" opacity="1"/>
<text fill="#e0e0e0" x="880.0" y="540" text-anchor="middle" font-size="12" opacity="1">9.8</text>
<line x1="880.0" y1="20" x2="880.0" y2="520" stroke="#444444" stroke-width="1" opacity="1" stroke-dasharray="4,4"/>
<line x1="115" y1="45.0" x2="120" y2="45.0" stroke="#e0e0e0" stroke-width="1" opacity="1"/>
<text fill="#e0e0e0" x="110" y="49.0" text-anchor="middle" font-size="12" opacity="1">Health</text>
<line x1="115" y1="95.0" x2="120" y2="95.0" stroke="#e0e0e0" stroke-width="1" opacity="1"/>
<text fill="#e0e0e0" x="110" y="99.0" text-anchor="middle" font-size="12" opacity="1">Finance</text>
<line x1="115" y1="145.0" x2="120" y2="145.0" stroke="#e0e0e0" stroke-width="1" opacity="1"/>
<text fill="#e0e0e0" x="110" y="149.0" text-anchor="middle" font-size="12" opacity="1">Industry</text>
<line x1="115" y1="195.0" x2="120" y2="195.0" stroke="#e0e0e0" stroke-width="1" opacity="1"/>
<text fill="#e0e0e0" x="110" y="199.0" text-anchor="middle" font-size="12" opacity="1">Tech</text>
<line x1="115" y1="245.0" x2="120" y2="245.0" stroke="#e0e0e0" stroke-width="1" opacity="1"/>
<text fill="#e0e0e0" x="110" y="249.0" text-anchor="middle" font-size="12" opacity="1">Energy</text>
<line x1="115" y1="295.0" x2="120" y2="295.0" stroke="#e0e0e0" stroke-width="1" opacity="1"/>
<text fill="#e0e0e0" x="110" y="299.0" text-anchor="middle" font-size="12" opacity="1">Pharma</text>
<line x1="115" y1="345.0" x2="120" y2="345.0" stroke="#e0e0e0" stroke-width="1" opacity="1"/>
<text fill="#e0e0e0" x="110" y="349.0" text-anchor="middle" font-size="12" opacity="1">Services</text>
<line x1="115" y1="395.0" x2="120" y2="395.0" stroke="#e0e0e0" stroke-width="1" opacity="1"/>
<text fill="#e0e0e0" x="110" y="399.0" text-anchor="middle" font-size="12" opacity="1">Retail</text>
<line x1="115" y1="445.0" x2="120" y2="445.0" stroke="#e0e0e0" stroke-width="1" opacity="1"/>
<text fill="#e0e0e0" x="110" y="449.0" text-anchor="middle" font-size="12" opacity="1">Education</text>
<line x1="115" y1="495.0" x2="120" y2="495.0" stroke="#e0e0e0" stroke-width="1" opacity="1"/>
<text fill="#e0e0e0" x="110" y="499.0" text-anchor="middle" font-size="12" opacity="1">Hospitality</text>
<rect x="120.0" y="30.0" width="760.0" height="30.0" fill="#ff4d4d" opacity="1"/>
<rect x="120.0" y="80.0" width="472.95803480040945" height="30.0" fill="#ff7a45" opacity="1"/>
<rect x="120.0" y="130.0" width="432.5076765609007" height="30.0" fill="#ff9f40" opacity="1"/>
<rect x="120.0" y="180.0" width="423.95087001023535" height="30.0" fill="#ffb347" opacity="1"/>
<rect x="120.0" y="230.0" width="411.50460593654043" height="30.0" fill="#ffc857" opacity="1"/>
<rect x="120.0" y="280.0" width="404.50358239508705" height="30.0" fill="#ffd166" opacity="1"/>
<rect x="120.0" y="330.0" width="395.1688843398158" height="30.0" fill="#ffe082" opacity="1"/>
<rect x="120.0" y="380.0" width="270.7062436028659" height="30.0" fill="#8bd17c" opacity="1"/>
<rect x="120.0" y="430.0" width="264.4831115660184" height="30.0" fill="#66c2a5" opacity="1"/>
<rect x="120.0" y="480.0" width="225.58853633572164" height="30.0" fill="#4bc0c0" opacity="1"/>
<rect x="790" y="20" width="15" height="15" fill="#ff4d4d" opacity="1"/>
<text fill="#e0e0e0" x="810" y="32" text-anchor="start" font-size="12" opacity="1">Health</text>
<rect x="790" y="40" width="15" height="15" fill="#ff7a45" opacity="1"/>
<text fill="#e0e0e0" x="810" y="52" text-anchor="start" font-size="12" opacity="1">Finance</text>
<rect x="790" y="60" width="15" height="15" fill="#ff9f40" opacity="1"/>
<text fill="#e0e0e0" x="810" y="72" text-anchor="start" font-size="12" opacity="1">Industry</text>
<rect x="790" y="80" width="15" height="15" fill="#ffb347" opacity="1"/>
<text fill="#e0e0e0" x="810" y="92" text-anchor="start" font-size="12" opacity="1">Tech</text>
<rect x="790" y="100" width="15" height="15" fill="#ffc857" opacity="1"/>
<text fill="#e0e0e0" x="810" y="112" text-anchor="start" font-size="12" opacity="1">Energy</text>
<rect x="790" y="120" width="15" height="15" fill="#ffd166" opacity="1"/>
<text fill="#e0e0e0" x="810" y="132" text-anchor="start" font-size="12" opacity="1">Pharma</text>
<rect x="790" y="140" width="15" height="15" fill="#ffe082" opacity="1"/>
<text fill="#e0e0e0" x="810" y="152" text-anchor="start" font-size="12" opacity="1">Services</text>
<rect x="790" y="160" width="15" height="15" fill="#8bd17c" opacity="1"/>
<text fill="#e0e0e0" x="810" y="172" text-anchor="start" font-size="12" opacity="1">Retail</text>
<rect x="790" y="180" width="15" height="15" fill="#66c2a5" opacity="1"/>
<text fill="#e0e0e0" x="810" y="192" text-anchor="start" font-size="12" opacity="1">Education</text>
<rect x="790" y="200" width="15" height="15" fill="#4bc0c0" opacity="1"/>
<text fill="#e0e0e0" x="810" y="212" text-anchor="start" font-size="12" opacity="1">Hospitality</text>
</svg>