<?xml version="1.0" standalone="no"?>
<!DOCTYPE svg PUBLIC "-//W3C//DTD SVG 1.1//EN" "http://www.w3.org/Graphics/SVG/1.1/DTD/svg11.dtd">
<svg version="1.1" xmlns="http://www.w3.org/2000/svg" viewBox="0 0 1341.7333080440949 670.2947524743669" width="1341.7333080440949" height="670.2947524743669"><!-- svg-source:excalidraw --><metadata></metadata><defs><style class="style-fonts">
      @font-face { font-family: Excalifont; src: url(https://esm.sh/@excalidraw/excalidraw/dist/prod/fonts/Excalifont/Excalifont-Regular-a88b72a24fb54c9f94e3b5fdaa7481c9.woff2); }</style></defs><g stroke-linecap="round" transform="translate(295.8510363230943 60.59341330948706) rotate(0 123.69394374792901 39.77438041120469)"><path d="M19.89 0 C63.52 -2.06, 104.34 3.11, 227.5 0 C239.88 -0.57, 246.05 7.28, 247.39 19.89 C248.06 34.66, 250.41 48.75, 247.39 59.66 C250.77 70, 238.27 78.77, 227.5 79.55 C152.43 74.27, 74.96 76.27, 19.89 79.55 C3.3 81.93, 2.13 70.4, 0 59.66 C2.23 48.02, 0.45 39.92, 0 19.89 C3.28 7.41, 7.59 -2.37, 19.89 0" stroke="none" stroke-width="0" fill="#ffc9c9"></path><path d="M19.89 0 C96.28 1.8, 175.96 1.66, 227.5 0 M19.89 0 C81.54 -0.91, 143.97 -1.53, 227.5 0 M227.5 0 C241.45 -1.32, 246.14 8.47, 247.39 19.89 M227.5 0 C239.44 -0.04, 249.17 6.03, 247.39 19.89 M247.39 19.89 C248.43 33.33, 246.17 47.9, 247.39 59.66 M247.39 19.89 C248.59 32.57, 248.44 46.97, 247.39 59.66 M247.39 59.66 C248.52 74.59, 240.68 78.6, 227.5 79.55 M247.39 59.66 C247.88 74.4, 240.65 79.45, 227.5 79.55 M227.5 79.55 C180.34 77.84, 131.61 79.23, 19.89 79.55 M227.5 79.55 C169.65 78.39, 110.27 77.24, 19.89 79.55 M19.89 79.55 C4.68 81.48, -0.27 71.21, 0 59.66 M19.89 79.55 C4.58 79.49, -1.64 71.09, 0 59.66 M0 59.66 C-0.7 51.16, 1.24 42.6, 0 19.89 M0 59.66 C-0.44 50.06, 0.8 40.02, 0 19.89 M0 19.89 C-1.97 8.39, 4.71 -0.11, 19.89 0 M0 19.89 C-0.25 8.83, 5.67 -2.1, 19.89 0" stroke="#e03131" stroke-width="4" fill="none"></path></g><g transform="translate(346.41998007102336 87.86779372069176) rotate(0 73.125 12.5)"><text x="73.125" y="17.619999999999997" font-family="Excalifont, Xiaolai, sans-serif, Segoe UI Emoji" font-size="20px" fill="#e03131" text-anchor="middle" style="white-space: pre;" direction="ltr" dominant-baseline="alphabetic">Weak password</text></g><g stroke-linecap="round"><g transform="translate(550.2389238189523 100.4480437401123) rotate(0 35.51724323994068 0.7145531665957208)"><path d="M0.36 0.58 C12.47 0.75, 60.01 1.79, 71.94 1.65 M-0.91 -0.16 C11.2 -0.37, 59.49 -0.1, 71.6 0.02" stroke="#e03131" stroke-width="4" fill="none"></path></g><g transform="translate(550.2389238189523 100.4480437401123) rotate(0 35.51724323994068 0.7145531665957208)"><path d="M48.04 8.4 C54.66 8.22, 60.93 6.16, 71.6 0.02 M48.04 8.4 C53.94 6.38, 57.71 5.2, 71.6 0.02" stroke="#e03131" stroke-width="4" fill="none"></path></g><g transform="translate(550.2389238189523 100.4480437401123) rotate(0 35.51724323994068 0.7145531665957208)"><path d="M48.16 -8.7 C54.84 -4.75, 61.08 -2.67, 71.6 0.02 M48.16 -8.7 C53.91 -6.98, 57.66 -4.41, 71.6 0.02" stroke="#e03131" stroke-width="4" fill="none"></path></g></g><mask></mask><g stroke-linecap="round" transform="translate(628.0326276505554 53.60012261725507) rotate(0 113.64108212535047 47.64183660829569)"><path d="M23.82 0 C81.45 4.75, 137.96 3.07, 203.46 0 C219.2 -1.48, 224.3 6.98, 227.28 23.82 C224 40.81, 228.45 54.05, 227.28 71.46 C228.71 86.74, 216 92.49, 203.46 95.28 C146 93.34, 89.06 94.67, 23.82 95.28 C6.08 93.08, 1.18 83.89, 0 71.46 C-3.04 55.09, -3.61 41.67, 0 23.82 C-2.68 5, 9.02 -1.01, 23.82 0" stroke="none" stroke-width="0" fill="#ffc9c9"></path><path d="M23.82 0 C65.69 -0.17, 109.39 0.48, 203.46 0 M23.82 0 C60.51 1.11, 96.48 0.68, 203.46 0 M203.46 0 C220.55 -0.29, 226.65 7.36, 227.28 23.82 M203.46 0 C220.44 -1.81, 225.94 7.2, 227.28 23.82 M227.28 23.82 C225.9 35.86, 227.22 46.27, 227.28 71.46 M227.28 23.82 C227.38 40.51, 227.42 57.85, 227.28 71.46 M227.28 71.46 C227.08 85.71, 217.62 95.96, 203.46 95.28 M227.28 71.46 C226.2 87.33, 219.93 93.72, 203.46 95.28 M203.46 95.28 C161.99 95.03, 120.38 94.24, 23.82 95.28 M203.46 95.28 C151.6 93.27, 99.2 94.7, 23.82 95.28 M23.82 95.28 C6.94 96.11, -1.93 86.6, 0 71.46 M23.82 95.28 C9.07 96.19, -1.77 85.74, 0 71.46 M0 71.46 C-1.1 60.17, -1.12 46.17, 0 23.82 M0 71.46 C0.48 61.11, 0.45 49.85, 0 23.82 M0 23.82 C-1.54 9.41, 9.71 1.82, 23.82 0 M0 23.82 C0.87 5.83, 9.51 1.88, 23.82 0" stroke="#e03131" stroke-width="4" fill="none"></path></g><g transform="translate(684.9028777141383 88.74195922555074) rotate(0 56.77083206176758 12.5)"><text x="56.77083206176758" y="17.619999999999997" font-family="Excalifont, Xiaolai, sans-serif, Segoe UI Emoji" font-size="20px" fill="#e03131" text-anchor="middle" style="white-space: pre;" direction="ltr" dominant-baseline="alphabetic">Vulnerability</text></g><g stroke-linecap="round" transform="translate(294.9768874915555 213.57177642029242) rotate(0 125.44229143096729 39.337297658775185)"><path d="M19.67 0 C95.89 1.49, 173.65 -0.46, 231.22 0 C247.11 2.39, 251.34 4.52, 250.88 19.67 C252.61 29.71, 247.33 37.53, 250.88 59.01 C249.66 70.06, 242.33 80.64, 231.22 78.67 C184.77 82.35, 131.43 78.27, 19.67 78.67 C6.44 79.41, 0.22 74.4, 0 59.01 C1.65 47.64, 1.6 37.76, 0 19.67 C-2.44 3.81, 5.11 -2.41, 19.67 0" stroke="none" stroke-width="0" fill="#ffc9c9"></path><path d="M19.67 0 C83.35 -1.6, 149.77 -1.13, 231.22 0 M19.67 0 C82.17 0.84, 145.27 1.12, 231.22 0 M231.22 0 C242.67 -0.41, 250.12 5.27, 250.88 19.67 M231.22 0 C243.09 -1.31, 251.38 8.08, 250.88 19.67 M250.88 19.67 C251.75 27.92, 250.03 39.53, 250.88 59.01 M250.88 19.67 C251.76 27.61, 250.72 38.19, 250.88 59.01 M250.88 59.01 C251.23 73.13, 245.87 80.21, 231.22 78.67 M250.88 59.01 C252.76 70.41, 242.31 80.76, 231.22 78.67 M231.22 78.67 C147.06 77.85, 63.12 76.11, 19.67 78.67 M231.22 78.67 C186.36 80.76, 142.37 80.81, 19.67 78.67 M19.67 78.67 C5.8 78.81, 0.25 70.77, 0 59.01 M19.67 78.67 C5.74 77.6, -0.62 70.94, 0 59.01 M0 59.01 C-0.3 45.07, 0.17 29.74, 0 19.67 M0 59.01 C0.05 47.7, -0.34 36.62, 0 19.67 M0 19.67 C-1.07 5.08, 5.32 1.79, 19.67 0 M0 19.67 C-1.81 7.5, 8.13 0.02, 19.67 0" stroke="#e03131" stroke-width="4" fill="none"></path></g><g transform="translate(347.7837647989876 240.4090740790676) rotate(0 72.63541412353516 12.5)"><text x="72.63541412353516" y="17.619999999999997" font-family="Excalifont, Xiaolai, sans-serif, Segoe UI Emoji" font-size="20px" fill="#e03131" text-anchor="middle" style="white-space: pre;" direction="ltr" dominant-baseline="alphabetic">User execution</text></g><g stroke-linecap="round"><g transform="translate(419.65308904640705 147.14217413189644) rotate(0 -0.06802288468202278 29.211164993190607)"><path d="M0.65 -0.29 C0.58 9.52, 0.35 49.87, 0.38 59.91 M-0.46 -1.49 C-0.8 8.48, -0.84 48.14, -0.75 58.05" stroke="#e03131" stroke-width="4" fill="none"></path></g><g transform="translate(419.65308904640705 147.14217413189644) rotate(0 -0.06802288468202278 29.211164993190607)"><path d="M-9.36 34.58 C-6.47 42.65, -1.99 52.06, -0.75 58.05 M-9.36 34.58 C-6.19 42.33, -2.9 49.87, -0.75 58.05" stroke="#e03131" stroke-width="4" fill="none"></path></g><g transform="translate(419.65308904640705 147.14217413189644) rotate(0 -0.06802288468202278 29.211164993190607)"><path d="M7.74 34.53 C4.31 42.71, 2.48 52.14, -0.75 58.05 M7.74 34.53 C4.97 42.42, 2.33 49.97, -0.75 58.05" stroke="#e03131" stroke-width="4" fill="none"></path></g></g><mask></mask><g stroke-linecap="round"><g transform="translate(410.58654358533926 299.2463717378429) rotate(0 -50.288004332485684 35.89316567363471)"><path d="M1.06 -0.94 C-15.98 11.27, -84.73 60.72, -101.63 72.72 M0.15 1.19 C-16.54 13.12, -82.47 59.34, -99.29 71.16" stroke="#e03131" stroke-width="4" fill="none"></path></g><g transform="translate(410.58654358533926 299.2463717378429) rotate(0 -50.288004332485684 35.89316567363471)"><path d="M-84.98 50.66 C-91.59 56.72, -93.23 65.99, -99.29 71.16 M-84.98 50.66 C-88.96 55.37, -91.92 60.66, -99.29 71.16" stroke="#e03131" stroke-width="4" fill="none"></path></g><g transform="translate(410.58654358533926 299.2463717378429) rotate(0 -50.288004332485684 35.89316567363471)"><path d="M-75.15 64.66 C-85.11 65.95, -90.16 70.36, -99.29 71.16 M-75.15 64.66 C-81.61 65.88, -87.04 67.65, -99.29 71.16" stroke="#e03131" stroke-width="4" fill="none"></path></g></g><mask></mask><g stroke-linecap="round"><g transform="translate(430.943937132543 299.2463717378429) rotate(0 53.11577459168481 35.297562446162914)"><path d="M-0.92 -0.66 C16.7 11.07, 87.33 58.02, 105.04 70.09 M0.8 1.61 C18.83 13.51, 89.32 59.87, 107.15 71.25" stroke="#e03131" stroke-width="4" fill="none"></path></g><g transform="translate(430.943937132543 299.2463717378429) rotate(0 53.11577459168481 35.297562446162914)"><path d="M82.79 65.63 C87.67 65.28, 93.58 67.14, 107.15 71.25 M82.79 65.63 C92.88 67.93, 101.22 70.49, 107.15 71.25" stroke="#e03131" stroke-width="4" fill="none"></path></g><g transform="translate(430.943937132543 299.2463717378429) rotate(0 53.11577459168481 35.297562446162914)"><path d="M92.11 51.28 C94.66 54.4, 98.28 59.78, 107.15 71.25 M92.11 51.28 C98.67 59.13, 103.47 67.14, 107.15 71.25" stroke="#e03131" stroke-width="4" fill="none"></path></g></g><mask></mask><g stroke-linecap="round" transform="translate(441.8360920683477 377.0401089160862) rotate(0 105.77362592825946 40.21146316363425)"><path d="M20.11 0 C77.62 2.99, 136.32 -2.41, 191.44 0 C204.65 2.12, 210.29 6.14, 211.55 20.11 C210.24 38.73, 209.03 49.86, 211.55 60.32 C214.71 72.97, 206.79 77, 191.44 80.42 C128.51 76.83, 60.95 77.42, 20.11 80.42 C6.18 80.77, -0.02 70.97, 0 60.32 C-2.39 52.99, -2.49 36.88, 0 20.11 C-1.05 3.94, 4.44 -2.89, 20.11 0" stroke="none" stroke-width="0" fill="#ffec99"></path><path d="M20.11 0 C63.77 -1.02, 108.34 1.43, 191.44 0 M20.11 0 C58.36 0.55, 96.52 0.27, 191.44 0 M191.44 0 C206.28 -1.7, 212.21 6.02, 211.55 20.11 M191.44 0 C203.13 0.35, 213.82 6.13, 211.55 20.11 M211.55 20.11 C210.26 31.43, 213.35 45.7, 211.55 60.32 M211.55 20.11 C212.4 34.75, 211.88 48.49, 211.55 60.32 M211.55 60.32 C211.22 73.63, 205.32 81, 191.44 80.42 M211.55 60.32 C211.03 72.05, 205.71 79.33, 191.44 80.42 M191.44 80.42 C146.63 81.13, 98.56 82.71, 20.11 80.42 M191.44 80.42 C153.28 80.58, 114.05 79.73, 20.11 80.42 M20.11 80.42 C6.7 81.61, -0.64 72.97, 0 60.32 M20.11 80.42 C8.37 79.41, -2.22 73.57, 0 60.32 M0 60.32 C-0.19 45.88, 1.97 27.91, 0 20.11 M0 60.32 C-0.83 49.92, 0.94 39.92, 0 20.11 M0 20.11 C-0.23 8.29, 5.82 -0.31, 20.11 0 M0 20.11 C0.92 5.42, 6.35 -1.19, 20.11 0" stroke="#f08c00" stroke-width="4" fill="none"></path></g><g transform="translate(469.849303873072 392.2515720797205) rotate(0 77.76041412353516 25)"><text x="77.76041412353516" y="17.619999999999997" font-family="Excalifont, Xiaolai, sans-serif, Segoe UI Emoji" font-size="20px" fill="#f08c00" text-anchor="middle" style="white-space: pre;" direction="ltr" dominant-baseline="alphabetic">Communication</text><text x="77.76041412353516" y="42.62" font-family="Excalifont, Xiaolai, sans-serif, Segoe UI Emoji" font-size="20px" fill="#f08c00" text-anchor="middle" style="white-space: pre;" direction="ltr" dominant-baseline="alphabetic">(emails, SMS, ...)</text></g><g stroke-linecap="round" transform="translate(209.30896813513283 377.91422440098484) rotate(0 90.47577127652673 39.3372976587751)"><path d="M19.67 0 C55.27 0.3, 91.18 1.6, 161.28 0 C177.99 -0.54, 178.2 9.12, 180.95 19.67 C183.97 33.53, 178.09 43.38, 180.95 59.01 C178.57 75.68, 174.11 82.02, 161.28 78.67 C115.22 74.97, 71.16 78.86, 19.67 78.67 C5.14 76.22, 1.86 69.07, 0 59.01 C0.55 47.46, -2.84 40.07, 0 19.67 C-2.84 9.46, 3.71 0.34, 19.67 0" stroke="none" stroke-width="0" fill="#ffec99"></path><path d="M19.67 0 C58.77 1.23, 102.23 -0.61, 161.28 0 M19.67 0 C48.57 0.35, 76.78 0.3, 161.28 0 M161.28 0 C175.56 -1.01, 182.14 7.39, 180.95 19.67 M161.28 0 C173.95 0.2, 181.01 6.76, 180.95 19.67 M180.95 19.67 C179.85 33.02, 182.49 49.51, 180.95 59.01 M180.95 19.67 C181.36 31.56, 180.99 45.44, 180.95 59.01 M180.95 59.01 C181.68 73.7, 176.1 79.47, 161.28 78.67 M180.95 59.01 C178.98 74.21, 176.6 78.41, 161.28 78.67 M161.28 78.67 C114.07 77.25, 72.22 76.87, 19.67 78.67 M161.28 78.67 C116.43 79.85, 72.12 78.85, 19.67 78.67 M19.67 78.67 C5.43 77.72, -0.34 73.15, 0 59.01 M19.67 78.67 C5.42 77.86, -0.74 71.9, 0 59.01 M0 59.01 C2.25 46.86, -0.25 30.56, 0 19.67 M0 59.01 C0.05 49.09, 0.56 40.82, 0 19.67 M0 19.67 C0.26 6.61, 5.67 0.11, 19.67 0 M0 19.67 C-0.39 7.35, 4.73 1.75, 19.67 0" stroke="#f08c00" stroke-width="4" fill="none"></path></g><g transform="translate(257.87848941165953 404.75152205975996) rotate(0 41.90625 12.5)"><text x="41.90625" y="17.619999999999997" font-family="Excalifont, Xiaolai, sans-serif, Segoe UI Emoji" font-size="20px" fill="#f08c00" text-anchor="middle" style="white-space: pre;" direction="ltr" dominant-baseline="alphabetic">Internet</text></g><g stroke-linecap="round" transform="translate(723.3163842337477 375.2918779462892) rotate(0 117.13774414478667 41.52270308426267)"><path d="M20.76 0 C74.96 -0.47, 134.37 0.76, 213.51 0 C225.38 2.96, 235.51 10.32, 234.28 20.76 C230.7 40.55, 230.86 56.96, 234.28 62.28 C232.79 75.34, 228.09 82.82, 213.51 83.05 C139.46 88.28, 69.26 86.22, 20.76 83.05 C4.66 81.24, -3.48 74.8, 0 62.28 C2.18 55.25, 2.75 42.45, 0 20.76 C1.72 5.85, 3.7 -3.48, 20.76 0" stroke="none" stroke-width="0" fill="#a5d8ff"></path><path d="M20.76 0 C73.02 0.3, 123.26 0.89, 213.51 0 M20.76 0 C94.72 -0.71, 167.37 -0.88, 213.51 0 M213.51 0 C225.83 1.46, 233.15 7.08, 234.28 20.76 M213.51 0 C225.59 1.88, 234.99 6.35, 234.28 20.76 M234.28 20.76 C235.92 30.17, 235.59 43.1, 234.28 62.28 M234.28 20.76 C233.52 34.07, 233.68 45.48, 234.28 62.28 M234.28 62.28 C236.15 74.16, 227.87 82.21, 213.51 83.05 M234.28 62.28 C235.97 74.06, 225.57 81.04, 213.51 83.05 M213.51 83.05 C145.31 83.4, 76.35 80.93, 20.76 83.05 M213.51 83.05 C144.91 84.44, 75.15 83.55, 20.76 83.05 M20.76 83.05 C7.11 83.3, -1.44 74.97, 0 62.28 M20.76 83.05 C6.5 84.35, -1.62 74.5, 0 62.28 M0 62.28 C1.52 52.06, 0.57 36.93, 0 20.76 M0 62.28 C-0.64 46.9, 0.05 31.84, 0 20.76 M0 20.76 C-0.38 4.95, 8.03 0.48, 20.76 0 M0 20.76 C1.58 5.42, 7.09 -0.69, 20.76 0" stroke="#1971c2" stroke-width="4" fill="none"></path></g><g transform="translate(762.0791283785344 391.81458103055195) rotate(0 78.375 25)"><text x="78.375" y="17.619999999999997" font-family="Excalifont, Xiaolai, sans-serif, Segoe UI Emoji" font-size="20px" fill="#1971c2" text-anchor="middle" style="white-space: pre;" direction="ltr" dominant-baseline="alphabetic">Automatic tools</text><text x="78.375" y="42.62" font-family="Excalifont, Xiaolai, sans-serif, Segoe UI Emoji" font-size="20px" fill="#1971c2" text-anchor="middle" style="white-space: pre;" direction="ltr" dominant-baseline="alphabetic">(QrCode, ...)</text></g><g stroke-linecap="round"><g transform="translate(964.5918725233212 416.62846781804615) rotate(0 32.68155414983545 -1.273701778668567)"><path d="M-0.43 -0.1 C10.48 -0.38, 54.96 -2.22, 65.8 -2.44 M1.54 -1.2 C12.37 -1.27, 55.06 -0.85, 65.44 -1.25" stroke="#1971c2" stroke-width="4" fill="none"></path></g><g transform="translate(964.5918725233212 416.62846781804615) rotate(0 32.68155414983545 -1.273701778668567)"><path d="M42.04 7.55 C49.53 6.65, 56.23 1.79, 65.44 -1.25 M42.04 7.55 C49.39 5.29, 57.52 2.29, 65.44 -1.25" stroke="#1971c2" stroke-width="4" fill="none"></path></g><g transform="translate(964.5918725233212 416.62846781804615) rotate(0 32.68155414983545 -1.273701778668567)"><path d="M41.86 -9.55 C49.3 -4.89, 56.06 -4.19, 65.44 -1.25 M41.86 -9.55 C49.22 -6.15, 57.41 -3.49, 65.44 -1.25" stroke="#1971c2" stroke-width="4" fill="none"></path></g></g><mask></mask><g stroke-linecap="round"><g transform="translate(660.3833439248665 417.2158996761983) rotate(0 28.18808664303441 -0.03245113487309936)"><path d="M-0.62 0.61 C9.08 0.91, 47.49 0.74, 56.99 0.72 M1.26 -0.12 C10.99 -0.04, 47.5 -0.62, 56.6 -0.85" stroke="#f08c00" stroke-width="4" fill="none"></path></g><g transform="translate(660.3833439248665 417.2158996761983) rotate(0 28.18808664303441 -0.03245113487309936)"><path d="M33.28 8.15 C39.12 8.2, 44.63 5.35, 56.6 -0.85 M33.28 8.15 C42.14 4.66, 50.51 1.53, 56.6 -0.85" stroke="#f08c00" stroke-width="4" fill="none"></path></g><g transform="translate(660.3833439248665 417.2158996761983) rotate(0 28.18808664303441 -0.03245113487309936)"><path d="M32.95 -8.95 C38.7 -5.41, 44.28 -4.79, 56.6 -0.85 M32.95 -8.95 C42.1 -6.16, 50.58 -3.02, 56.6 -0.85" stroke="#f08c00" stroke-width="4" fill="none"></path></g></g><mask></mask><g stroke-linecap="round" transform="translate(1036.2663344543098 370.9209337087526) rotate(0 105.77360925493929 43.70810850975019)"><path d="M21.85 0 C76.84 -1.9, 126.12 2.25, 189.69 0 C205.11 2.71, 209.87 4.41, 211.55 21.85 C210.81 41.99, 214.75 60.11, 211.55 65.56 C210.93 77.2, 206.75 89.31, 189.69 87.42 C135.73 84.56, 92.39 87.66, 21.85 87.42 C6.33 84.29, -1.56 81.05, 0 65.56 C3.7 57.94, -1.16 48.19, 0 21.85 C1.33 7.42, 7.17 -1.87, 21.85 0" stroke="none" stroke-width="0" fill="#ffec99"></path><path d="M21.85 0 C56.99 -0.9, 94.84 -2.88, 189.69 0 M21.85 0 C79.14 0.43, 135.35 0.08, 189.69 0 M189.69 0 C203.72 0.53, 210.16 5.61, 211.55 21.85 M189.69 0 C204.19 0.57, 213.41 9.49, 211.55 21.85 M211.55 21.85 C211.47 36.85, 211.98 53.08, 211.55 65.56 M211.55 21.85 C212.16 36.5, 211.51 49.96, 211.55 65.56 M211.55 65.56 C211.59 79.45, 203.79 89.15, 189.69 87.42 M211.55 65.56 C213.45 79.93, 202.82 89.17, 189.69 87.42 M189.69 87.42 C151.91 87.55, 111.92 84.5, 21.85 87.42 M189.69 87.42 C150.84 86.18, 112.6 86.06, 21.85 87.42 M21.85 87.42 C8.01 85.45, 0.83 79.74, 0 65.56 M21.85 87.42 C9.13 87.04, 0.41 78.26, 0 65.56 M0 65.56 C-0.34 57.4, -1.14 44.68, 0 21.85 M0 65.56 C-0.23 48.13, 0.95 30.56, 0 21.85 M0 21.85 C-0.36 5.5, 6.97 0.18, 21.85 0 M0 21.85 C-0.47 8.81, 7.86 1.35, 21.85 0" stroke="#f08c00" stroke-width="4" fill="none"></path></g><g transform="translate(1061.8003578327841 389.62904221850283) rotate(0 80.2395858764649 25)"><text x="80.23958587646484" y="17.619999999999997" font-family="Excalifont, Xiaolai, sans-serif, Segoe UI Emoji" font-size="20px" fill="#f08c00" text-anchor="middle" style="white-space: pre;" direction="ltr" dominant-baseline="alphabetic">External devices</text><text x="80.23958587646484" y="42.62" font-family="Excalifont, Xiaolai, sans-serif, Segoe UI Emoji" font-size="20px" fill="#f08c00" text-anchor="middle" style="white-space: pre;" direction="ltr" dominant-baseline="alphabetic">(USB, ...)</text></g><g stroke-linecap="round"><g transform="translate(753.7772196018444 155.88379583384645) rotate(0 81.80939325166759 47.47686625916472)"><path d="M1.09 0.13 C28.2 16.04, 136.3 78.69, 163.42 94.27 M0.2 -0.85 C27.16 15.37, 135.6 79.89, 162.84 95.8" stroke="#e03131" stroke-width="4" fill="none"></path></g><g transform="translate(753.7772196018444 155.88379583384645) rotate(0 81.80939325166759 47.47686625916472)"><path d="M138.26 91.22 C147.27 93.81, 155.87 96.12, 162.84 95.8 M138.26 91.22 C144.43 92.17, 150.07 93.74, 162.84 95.8" stroke="#e03131" stroke-width="4" fill="none"></path></g><g transform="translate(753.7772196018444 155.88379583384645) rotate(0 81.80939325166759 47.47686625916472)"><path d="M146.96 76.49 C152.7 84.46, 158.17 92.07, 162.84 95.8 M146.96 76.49 C151.04 81.16, 154.54 86.36, 162.84 95.8" stroke="#e03131" stroke-width="4" fill="none"></path></g></g><mask></mask><g stroke-linecap="round" transform="translate(923.4994011604979 224.06176247860097) rotate(0 93.97236660268214 30.158584867735527)"><path d="M15.08 0 C51.69 0.07, 90.36 1.97, 172.87 0 C183.65 2.97, 184.37 8.39, 187.94 15.08 C187.51 21.44, 184.93 28.8, 187.94 45.24 C189.7 54.92, 182.01 63.82, 172.87 60.32 C128.38 57.53, 77.3 59.51, 15.08 60.32 C3.2 59.63, 0.13 55.8, 0 45.24 C-3.5 33.2, 2.63 26.97, 0 15.08 C-0.99 1.69, 8 -2.33, 15.08 0" stroke="none" stroke-width="0" fill="#ffec99"></path><path d="M15.08 0 C49.94 -2.37, 82.22 -1.06, 172.87 0 M15.08 0 C65 -1.55, 116.01 -0.31, 172.87 0 M172.87 0 C183.97 0.38, 188.75 6.44, 187.94 15.08 M172.87 0 C183.73 1.29, 187.77 6.83, 187.94 15.08 M187.94 15.08 C186.72 26.28, 187.06 39.27, 187.94 45.24 M187.94 15.08 C188.74 23.69, 188.91 31.29, 187.94 45.24 M187.94 45.24 C189.47 54.23, 181.02 60.6, 172.87 60.32 M187.94 45.24 C186.62 55.19, 183.41 58.15, 172.87 60.32 M172.87 60.32 C117.11 62.9, 60.21 60.7, 15.08 60.32 M172.87 60.32 C128.79 58.61, 83.44 59.29, 15.08 60.32 M15.08 60.32 C3.99 62.07, -1.52 56.2, 0 45.24 M15.08 60.32 C4.12 61.33, -1.69 54.21, 0 45.24 M0 45.24 C-0.48 34.36, -1.49 25.24, 0 15.08 M0 45.24 C-0.47 35.56, 1.1 24.6, 0 15.08 M0 15.08 C0.79 4.89, 5.55 0.49, 15.08 0 M0 15.08 C2.23 3.86, 2.99 0.83, 15.08 0" stroke="#f08c00" stroke-width="4" fill="none"></path></g><g transform="translate(942.53426776318 241.72034734633652) rotate(0 74.93750000000006 12.5)"><text x="74.9375" y="17.619999999999997" font-family="Excalifont, Xiaolai, sans-serif, Segoe UI Emoji" font-size="20px" fill="#f08c00" text-anchor="middle" style="white-space: pre;" direction="ltr" dominant-baseline="alphabetic">Physical access</text></g><g stroke-linecap="round"><g transform="translate(1027.5665223287315 291.37893221407205) rotate(0 52.25481646777149 35.978492377325466)"><path d="M-0.1 -1.05 C17.39 11.06, 86.39 59.53, 103.75 71.84 M-1.61 1.01 C16.38 13.34, 88.65 60.81, 106.12 73.01" stroke="#f08c00" stroke-width="4" fill="none"></path></g><g transform="translate(1027.5665223287315 291.37893221407205) rotate(0 52.25481646777149 35.978492377325466)"><path d="M81.86 66.96 C84.97 67.09, 90.44 68.9, 106.12 73.01 M81.86 66.96 C90.47 69.36, 97.92 70.22, 106.12 73.01" stroke="#f08c00" stroke-width="4" fill="none"></path></g><g transform="translate(1027.5665223287315 291.37893221407205) rotate(0 52.25481646777149 35.978492377325466)"><path d="M91.42 52.78 C92.5 55.77, 96.04 60.44, 106.12 73.01 M91.42 52.78 C96.86 59.72, 101.25 65.11, 106.12 73.01" stroke="#f08c00" stroke-width="4" fill="none"></path></g></g><mask></mask><g stroke-linecap="round"><g transform="translate(862.3147919012563 101.33610322803784) rotate(0 47.90874295875841 0.06721259419693126)"><path d="M1.18 0.15 C17.2 0.01, 79.82 -0.22, 95.47 0.01 M0.35 -0.81 C16.35 -0.92, 79.37 0.92, 95.09 0.95" stroke="#f08c00" stroke-width="4" fill="none"></path></g><g transform="translate(862.3147919012563 101.33610322803784) rotate(0 47.90874295875841 0.06721259419693126)"><path d="M71.45 9.1 C77.56 8.62, 81.31 5.93, 95.09 0.95 M71.45 9.1 C80.1 5.61, 87.6 3.61, 95.09 0.95" stroke="#f08c00" stroke-width="4" fill="none"></path></g><g transform="translate(862.3147919012563 101.33610322803784) rotate(0 47.90874295875841 0.06721259419693126)"><path d="M71.74 -8 C77.9 -4.2, 81.58 -2.62, 95.09 0.95 M71.74 -8 C80.26 -5.83, 87.67 -2.17, 95.09 0.95" stroke="#f08c00" stroke-width="4" fill="none"></path></g></g><mask></mask><g stroke-linecap="round" transform="translate(963.7109143440929 59.7192644779482) rotate(0 90.03866351411693 42.833943004891154)"><path d="M21.42 0 C56.31 0.85, 89.1 0.51, 158.66 0 C173.62 2.18, 178.45 10.58, 180.08 21.42 C178.68 36.45, 178.05 47.42, 180.08 64.25 C180.29 78.29, 174.17 87.97, 158.66 85.67 C107.81 82.79, 67.68 85.09, 21.42 85.67 C6.23 86.13, -1.4 77.43, 0 64.25 C-0.86 49.89, -3.18 35.14, 0 21.42 C-2.75 7, 9.39 0.88, 21.42 0" stroke="none" stroke-width="0" fill="#ffec99"></path><path d="M21.42 0 C49.78 -1.37, 77.18 2.26, 158.66 0 M21.42 0 C71.98 0.69, 123.35 -0.26, 158.66 0 M158.66 0 C172.88 0.51, 181.35 5.61, 180.08 21.42 M158.66 0 C171.28 0.23, 179.08 8.18, 180.08 21.42 M180.08 21.42 C179.39 38.14, 178.99 51.58, 180.08 64.25 M180.08 21.42 C180.02 37.91, 179.99 53.66, 180.08 64.25 M180.08 64.25 C181.73 77.75, 174.33 83.69, 158.66 85.67 M180.08 64.25 C180.99 76.8, 171.4 87.45, 158.66 85.67 M158.66 85.67 C109.2 85.96, 59.43 85.16, 21.42 85.67 M158.66 85.67 C104.58 86.39, 51.13 87.2, 21.42 85.67 M21.42 85.67 C8.9 84.41, -0.87 78.5, 0 64.25 M21.42 85.67 C7.72 84.7, -1.08 76.28, 0 64.25 M0 64.25 C-1.56 50.58, 1.14 36.21, 0 21.42 M0 64.25 C0.07 46.78, -0.16 30.16, 0 21.42 M0 21.42 C-1.78 7.27, 8.94 -0.35, 21.42 0 M0 21.42 C-2.26 5.08, 8.66 1.71, 21.42 0" stroke="#f08c00" stroke-width="4" fill="none"></path></g><g transform="translate(978.166241981745 77.55320748283933) rotate(0 75.58333587646484 25)"><text x="75.58333587646484" y="17.619999999999997" font-family="Excalifont, Xiaolai, sans-serif, Segoe UI Emoji" font-size="20px" fill="#f08c00" text-anchor="middle" style="white-space: pre;" direction="ltr" dominant-baseline="alphabetic">Network access</text><text x="75.58333587646484" y="42.62" font-family="Excalifont, Xiaolai, sans-serif, Segoe UI Emoji" font-size="20px" fill="#f08c00" text-anchor="middle" style="white-space: pre;" direction="ltr" dominant-baseline="alphabetic">(WiFi, ...)</text></g><g stroke-linecap="round"><g transform="translate(1118.4441343658623 254.30220416255546) rotate(0 35.179477591671684 0.09872795050222294)"><path d="M-0.5 -1.19 C11.26 -1.26, 59.05 -0.36, 70.86 0.16 M1.43 0.8 C13.1 0.83, 59.01 1.49, 70.41 1.38" stroke="#f08c00" stroke-width="4" fill="none"></path></g><g transform="translate(1118.4441343658623 254.30220416255546) rotate(0 35.179477591671684 0.09872795050222294)"><path d="M46.88 9.84 C52.45 8.78, 61.03 5.23, 70.41 1.38 M46.88 9.84 C56.99 6.19, 65.03 3.19, 70.41 1.38" stroke="#f08c00" stroke-width="4" fill="none"></path></g><g transform="translate(1118.4441343658623 254.30220416255546) rotate(0 35.179477591671684 0.09872795050222294)"><path d="M46.95 -7.26 C52.57 -2.81, 61.13 -0.83, 70.41 1.38 M46.95 -7.26 C57.09 -4.17, 65.09 -0.41, 70.41 1.38" stroke="#f08c00" stroke-width="4" fill="none"></path></g></g><mask></mask><g stroke-linecap="round" transform="translate(1195.3639561390496 223.18751360714103) rotate(0 68.18467595252264 34.80788526674442)"><path d="M17.4 0 C43.92 4.16, 73.62 4.57, 118.97 0 C132.13 -2.44, 139.53 6.28, 136.37 17.4 C138.04 29.31, 139.03 37.37, 136.37 52.21 C133.52 61.58, 134.14 71.83, 118.97 69.62 C85.25 70.43, 55.6 68.78, 17.4 69.62 C5.5 67.87, 1.27 63.02, 0 52.21 C0.76 41.88, -1.78 28.44, 0 17.4 C-1.05 3.34, 3.14 2.8, 17.4 0" stroke="none" stroke-width="0" fill="#ffec99"></path><path d="M17.4 0 C44.92 -0.19, 71.84 -1.35, 118.97 0 M17.4 0 C39.91 -0.24, 64.55 0.86, 118.97 0 M118.97 0 C129.72 1.35, 135.05 5.54, 136.37 17.4 M118.97 0 C132.54 -0.4, 135.29 7.13, 136.37 17.4 M136.37 17.4 C136.83 25.92, 135.9 32.9, 136.37 52.21 M136.37 17.4 C135.58 24.82, 136.94 33.05, 136.37 52.21 M136.37 52.21 C135.05 62.64, 130.37 70.77, 118.97 69.62 M136.37 52.21 C137.54 63, 130.83 67.37, 118.97 69.62 M118.97 69.62 C80.2 70.44, 42.36 68.88, 17.4 69.62 M118.97 69.62 C93.78 68.29, 69.4 68.57, 17.4 69.62 M17.4 69.62 C4.68 69.6, 0.55 62.48, 0 52.21 M17.4 69.62 C6.33 71.73, -1.51 66.03, 0 52.21 M0 52.21 C0.2 45.35, -1.7 37.28, 0 17.4 M0 52.21 C-0.53 40.86, 0.88 27.38, 0 17.4 M0 17.4 C0.1 5.98, 7.78 0.25, 17.4 0 M0 17.4 C0.14 5.27, 5.75 1.09, 17.4 0" stroke="#f08c00" stroke-width="4" fill="none"></path></g><g transform="translate(1231.47571415334 232.99539887388542) rotate(0 32.07291793823242 25)"><text x="32.07291793823242" y="17.619999999999997" font-family="Excalifont, Xiaolai, sans-serif, Segoe UI Emoji" font-size="20px" fill="#f08c00" text-anchor="middle" style="white-space: pre;" direction="ltr" dominant-baseline="alphabetic">Device</text><text x="32.07291793823242" y="42.62" font-family="Excalifont, Xiaolai, sans-serif, Segoe UI Emoji" font-size="20px" fill="#f08c00" text-anchor="middle" style="white-space: pre;" direction="ltr" dominant-baseline="alphabetic">access</text></g><g stroke-linecap="round" transform="translate(614.920395177473 528.2702243837747) rotate(0 67.31046042770299 34.96648680780015)"><path d="M17.48 0 C49.21 -0.24, 76.3 -2.39, 117.14 0 C128.44 1.45, 138.08 7.16, 134.62 17.48 C137.62 33.28, 135.65 46.54, 134.62 52.45 C131.26 60.82, 130.96 67.83, 117.14 69.93 C97.93 66.13, 70.97 68.96, 17.48 69.93 C7.77 72.15, 2.05 60.66, 0 52.45 C-2.56 43.26, 2.56 28.53, 0 17.48 C-3.28 3.83, 9.03 -1.51, 17.48 0" stroke="none" stroke-width="0" fill="#ffec99"></path><path d="M17.48 0 C49.68 -2.01, 87.17 -1.59, 117.14 0 M17.48 0 C50.2 0.7, 81.19 0.22, 117.14 0 M117.14 0 C129.99 -0.15, 135.78 6.94, 134.62 17.48 M117.14 0 C129.43 -0.07, 135.89 7.88, 134.62 17.48 M134.62 17.48 C132.58 28.38, 133.37 41.13, 134.62 52.45 M134.62 17.48 C134.08 25.92, 134.43 34.62, 134.62 52.45 M134.62 52.45 C132.75 65.12, 128.3 69.98, 117.14 69.93 M134.62 52.45 C136.02 65.7, 127.14 70.75, 117.14 69.93 M117.14 69.93 C86 68.92, 52.76 71.91, 17.48 69.93 M117.14 69.93 C86.21 70.06, 57.24 70.42, 17.48 69.93 M17.48 69.93 C4.56 70.34, 1.26 63.21, 0 52.45 M17.48 69.93 C3.6 69.65, 1.28 63.11, 0 52.45 M0 52.45 C1.51 40.91, -0.49 25.75, 0 17.48 M0 52.45 C0.05 45.02, 1.07 38.39, 0 17.48 M0 17.48 C0.28 7.05, 4.72 -0.39, 17.48 0 M0 17.48 C1.26 3.66, 4.34 1.75, 17.48 0" stroke="#f08c00" stroke-width="4" fill="none"></path></g><g transform="translate(620.8037735434084 550.7367111915748) rotate(0 61.42708206176758 12.5)"><text x="61.42708206176758" y="17.619999999999997" font-family="Excalifont, Xiaolai, sans-serif, Segoe UI Emoji" font-size="20px" fill="#f08c00" text-anchor="middle" style="white-space: pre;" direction="ltr" dominant-baseline="alphabetic">Device share</text></g><g stroke-linecap="round"><g transform="translate(320.4847089032172 463.5888197185352) rotate(0 143.29256051797944 48.225521300159755)"><path d="M-0.76 -1.18 C47.04 15.28, 239.14 81.05, 287.35 97.63 M1.04 0.81 C48.63 17, 238.48 79.74, 286.35 95.69" stroke="#f08c00" stroke-width="4" fill="none"></path></g><g transform="translate(320.4847089032172 463.5888197185352) rotate(0 143.29256051797944 48.225521300159755)"><path d="M261.36 96.41 C268 96.17, 279.15 97.83, 286.35 95.69 M261.36 96.41 C271.33 96.75, 281.08 96.45, 286.35 95.69" stroke="#f08c00" stroke-width="4" fill="none"></path></g><g transform="translate(320.4847089032172 463.5888197185352) rotate(0 143.29256051797944 48.225521300159755)"><path d="M266.75 80.18 C271.38 85.49, 280.67 92.74, 286.35 95.69 M266.75 80.18 C274.54 86.83, 282.19 92.83, 286.35 95.69" stroke="#f08c00" stroke-width="4" fill="none"></path></g></g><mask></mask><g stroke-linecap="round"><g transform="translate(226.12031583036034 371.0072273142597) rotate(0 21.002125334493854 -136.42335523853998)"><path d="M0.2 -0.43 C-3.19 -25.83, -29.77 -108.46, -19.53 -153.44 C-9.3 -198.42, 47.91 -250.88, 61.58 -270.29 M-1.16 -1.69 C-4.25 -26.84, -28.17 -106.98, -17.33 -152.1 C-6.5 -197.22, 50.54 -252.42, 63.87 -272.42" stroke="#f08c00" stroke-width="4" fill="none"></path></g><g transform="translate(226.12031583036034 371.0072273142597) rotate(0 21.002125334493854 -136.42335523853998)"><path d="M55.68 -248.8 C58.17 -259.08, 61.24 -268.03, 63.87 -272.42 M55.68 -248.8 C57.77 -257.04, 61.21 -263.89, 63.87 -272.42" stroke="#f08c00" stroke-width="4" fill="none"></path></g><g transform="translate(226.12031583036034 371.0072273142597) rotate(0 21.002125334493854 -136.42335523853998)"><path d="M42.41 -259.59 C49.66 -265.95, 57.6 -270.94, 63.87 -272.42 M42.41 -259.59 C48.92 -264.31, 56.78 -267.56, 63.87 -272.42" stroke="#f08c00" stroke-width="4" fill="none"></path></g></g><mask></mask><g stroke-linecap="round"><g transform="translate(1034.265030007186 52.71926447794823) rotate(0 -131.36934348937007 -20.852605836875995)"><path d="M-0.42 -1.05 C-19.67 -7.77, -72.06 -40.22, -115.93 -41.05 C-159.8 -41.88, -239.13 -11.83, -263.65 -6.05 M1.56 1.01 C-17.73 -5.98, -72.07 -41.75, -116.38 -42.7 C-160.69 -43.65, -239.97 -10.91, -264.3 -4.69" stroke="#f08c00" stroke-width="4" fill="none"></path></g><g transform="translate(1034.265030007186 52.71926447794823) rotate(0 -131.36934348937007 -20.852605836875995)"><path d="M-244.6 -20.07 C-251.68 -14.46, -253.67 -11.6, -264.3 -4.69 M-244.6 -20.07 C-250.65 -15.58, -257.52 -11.65, -264.3 -4.69" stroke="#f08c00" stroke-width="4" fill="none"></path></g><g transform="translate(1034.265030007186 52.71926447794823) rotate(0 -131.36934348937007 -20.852605836875995)"><path d="M-239.32 -3.81 C-247.71 -2.54, -251.11 -4.01, -264.3 -4.69 M-239.32 -3.81 C-247.09 -4.3, -255.58 -5.35, -264.3 -4.69" stroke="#f08c00" stroke-width="4" fill="none"></path></g></g><mask></mask><g stroke-linecap="round"><g transform="translate(1115.869803623575 465.33715072825305) rotate(0 -179.0387050501654 48.12862028046936)"><path d="M0.8 -1.16 C-59.13 14.67, -298.54 79.81, -358.41 95.94 M-0.25 0.84 C-60.35 16.78, -299.13 81.45, -358.87 97.42" stroke="#f08c00" stroke-width="4" fill="none"></path></g><g transform="translate(1115.869803623575 465.33715072825305) rotate(0 -179.0387050501654 48.12862028046936)"><path d="M-338.41 83.06 C-348.33 90.41, -354.66 96.07, -358.87 97.42 M-338.41 83.06 C-344.87 87.28, -349.46 90.88, -358.87 97.42" stroke="#f08c00" stroke-width="4" fill="none"></path></g><g transform="translate(1115.869803623575 465.33715072825305) rotate(0 -179.0387050501654 48.12862028046936)"><path d="M-333.97 99.57 C-345.78 100.42, -353.86 99.54, -358.87 97.42 M-333.97 99.57 C-341.47 99.44, -347.23 98.7, -358.87 97.42" stroke="#f08c00" stroke-width="4" fill="none"></path></g></g><mask></mask><g stroke-linecap="round"><g transform="translate(560.9387603285102 464.46303524335474) rotate(0 53.93758133803317 28.576916518410542)"><path d="M-0.23 -0.68 C17.8 9.13, 89.16 48.1, 107.32 57.84 M-1.81 1.57 C16.69 11.17, 91.32 47.2, 109.68 56.26" stroke="#f08c00" stroke-width="4" fill="none"></path></g><g transform="translate(560.9387603285102 464.46303524335474) rotate(0 53.93758133803317 28.576916518410542)"><path d="M84.82 53.64 C89.39 53.17, 97.99 56.1, 109.68 56.26 M84.82 53.64 C95.11 54.93, 102.97 56.5, 109.68 56.26" stroke="#f08c00" stroke-width="4" fill="none"></path></g><g transform="translate(560.9387603285102 464.46303524335474) rotate(0 53.93758133803317 28.576916518410542)"><path d="M92.32 38.27 C95.02 41.33, 101.89 47.81, 109.68 56.26 M92.32 38.27 C99.62 45.34, 104.63 52.74, 109.68 56.26" stroke="#f08c00" stroke-width="4" fill="none"></path></g></g><mask></mask><g stroke-linecap="round"><g transform="translate(824.6390588850427 465.33728411481457) rotate(0 -63.043263412078886 27.97887843680394)"><path d="M-0.62 0.55 C-21.53 9.59, -105.35 45.89, -126.45 55.08 M1.26 -0.21 C-19.72 8.88, -105.75 46.65, -127.35 56.16" stroke="#1971c2" stroke-width="4" fill="none"></path></g><g transform="translate(824.6390588850427 465.33728411481457) rotate(0 -63.043263412078886 27.97887843680394)"><path d="M-109.28 38.88 C-112.2 42.76, -118.52 45.28, -127.35 56.16 M-109.28 38.88 C-114.37 43.02, -119.8 47.85, -127.35 56.16" stroke="#1971c2" stroke-width="4" fill="none"></path></g><g transform="translate(824.6390588850427 465.33728411481457) rotate(0 -63.043263412078886 27.97887843680394)"><path d="M-102.4 54.54 C-106.95 54.94, -114.77 54.03, -127.35 56.16 M-102.4 54.54 C-109.52 54.35, -116.87 54.82, -127.35 56.16" stroke="#1971c2" stroke-width="4" fill="none"></path></g></g><mask></mask><g stroke-linecap="round"><g transform="translate(287.97688749155543 252.87524892589553) rotate(0 -66.92287620382334 -0.1606830612054182)"><path d="M0.21 0.03 C-21.97 0, -111.94 -0.78, -134.06 -0.85 M-1.14 -1 C-22.88 -0.78, -109.99 0.91, -131.97 0.66" stroke="#e03131" stroke-width="4" fill="none"></path></g><g transform="translate(287.97688749155543 252.87524892589553) rotate(0 -66.92287620382334 -0.1606830612054182)"><path d="M-108.53 -8.04 C-113.6 -8.11, -118.8 -3.59, -131.97 0.66 M-108.53 -8.04 C-115.75 -4.71, -124.94 -2.32, -131.97 0.66" stroke="#e03131" stroke-width="4" fill="none"></path></g><g transform="translate(287.97688749155543 252.87524892589553) rotate(0 -66.92287620382334 -0.1606830612054182)"><path d="M-108.43 9.06 C-113.42 5.3, -118.65 6.12, -131.97 0.66 M-108.43 9.06 C-115.63 6.68, -124.86 3.35, -131.97 0.66" stroke="#e03131" stroke-width="4" fill="none"></path></g></g><mask></mask><g stroke-linecap="round" transform="translate(16.119141860693105 215.3200740833702) rotate(0 65.99923718039469 36.714817817518224)"><path d="M18.36 0 C50.01 0.9, 72.54 0.96, 113.64 0 C123.47 2.33, 128.74 6.51, 132 18.36 C128.57 32.77, 129.64 40.48, 132 55.07 C134.19 64.01, 123.15 74.47, 113.64 73.43 C77.65 73.44, 49.65 72.15, 18.36 73.43 C6.24 75.19, -0.69 64.69, 0 55.07 C2.5 43.66, 2.75 27.7, 0 18.36 C-1.05 6.34, 2.64 0.88, 18.36 0" stroke="none" stroke-width="0" fill="#ffec99"></path><path d="M18.36 0 C53.94 0.02, 87.33 0.5, 113.64 0 M18.36 0 C49.16 -1.02, 81.27 -1.02, 113.64 0 M113.64 0 C126.06 -0.75, 132.15 4.69, 132 18.36 M113.64 0 C126.32 0.25, 132.52 8.11, 132 18.36 M132 18.36 C132.49 29.61, 132.33 42.96, 132 55.07 M132 18.36 C132.27 30.36, 132.05 43.61, 132 55.07 M132 55.07 C131.54 68.07, 126.91 74.37, 113.64 73.43 M132 55.07 C132.35 69.09, 124.18 71.57, 113.64 73.43 M113.64 73.43 C93.21 73.24, 71.74 73.12, 18.36 73.43 M113.64 73.43 C80.73 73.69, 50.14 72.42, 18.36 73.43 M18.36 73.43 C4.22 71.47, -0.26 67.4, 0 55.07 M18.36 73.43 C8.07 72.95, 2.14 68.95, 0 55.07 M0 55.07 C0.03 41.96, 0.11 30.38, 0 18.36 M0 55.07 C-0.92 42.06, -1.3 29.43, 0 18.36 M0 18.36 C0.77 6.75, 6.46 -0.31, 18.36 0 M0 18.36 C-2.08 5.85, 6.14 1.97, 18.36 0" stroke="#f08c00" stroke-width="4" fill="none"></path></g><g transform="translate(29.910046979320214 227.03489190088843) rotate(0 52.20833206176758 25)"><text x="52.20833206176758" y="17.619999999999997" font-family="Excalifont, Xiaolai, sans-serif, Segoe UI Emoji" font-size="20px" fill="#f08c00" text-anchor="middle" style="white-space: pre;" direction="ltr" dominant-baseline="alphabetic">Social</text><text x="52.20833206176758" y="42.62" font-family="Excalifont, Xiaolai, sans-serif, Segoe UI Emoji" font-size="20px" fill="#f08c00" text-anchor="middle" style="white-space: pre;" direction="ltr" dominant-baseline="alphabetic">engineering</text></g><g stroke-linecap="round" transform="translate(257.38792084249843 544.8792856094955) rotate(0 115.82648755083804 39.6157705334889)"><path d="M19.81 0 C68.15 -6.77, 114.04 -1.31, 211.85 0 C228.52 1, 231.76 5.23, 231.65 19.81 C232.72 31.57, 234.02 42.71, 231.65 59.42 C233.62 73.13, 228.62 76.28, 211.85 79.23 C161.01 82.89, 115.84 80, 19.81 79.23 C5.43 81.92, -1.95 71.34, 0 59.42 C-0.34 49.2, -2.63 36.94, 0 19.81 C0.49 6.96, 4.07 1.47, 19.81 0" stroke="none" stroke-width="0" fill="#ffec99"></path><path d="M19.81 0 C85.83 -1.06, 153.35 -0.48, 211.85 0 M19.81 0 C94.68 -0.05, 167.41 -0.49, 211.85 0 M211.85 0 C224.47 -0.18, 233.55 8.2, 231.65 19.81 M211.85 0 C226.82 1.11, 229.88 6.28, 231.65 19.81 M231.65 19.81 C233.37 31.51, 231.37 40.21, 231.65 59.42 M231.65 19.81 C231.82 29.85, 232.23 39.57, 231.65 59.42 M231.65 59.42 C232.11 73.51, 226.5 77.48, 211.85 79.23 M231.65 59.42 C230.01 73.74, 224.07 80.13, 211.85 79.23 M211.85 79.23 C142.09 79.53, 69.48 79.64, 19.81 79.23 M211.85 79.23 C147.17 77.34, 81.59 78.81, 19.81 79.23 M19.81 79.23 C5.54 80.06, -0.26 74.27, 0 59.42 M19.81 79.23 C8.37 80.06, 2.03 71.35, 0 59.42 M0 59.42 C0.34 43.16, -1.38 29.93, 0 19.81 M0 59.42 C0.17 42.82, -0.53 27.51, 0 19.81 M0 19.81 C0.51 7.74, 8.16 1.81, 19.81 0 M0 19.81 C2.29 7.97, 6.87 0.35, 19.81 0" stroke="#f08c00" stroke-width="4" fill="none"></path></g><g transform="translate(272.1623225168716 559.4950561429844) rotate(0 101.05208587646484 25)"><text x="101.05208587646484" y="17.619999999999997" font-family="Excalifont, Xiaolai, sans-serif, Segoe UI Emoji" font-size="20px" fill="#f08c00" text-anchor="middle" style="white-space: pre;" direction="ltr" dominant-baseline="alphabetic">Personal context vs.</text><text x="101.05208587646484" y="42.62" font-family="Excalifont, Xiaolai, sans-serif, Segoe UI Emoji" font-size="20px" fill="#f08c00" text-anchor="middle" style="white-space: pre;" direction="ltr" dominant-baseline="alphabetic">professional context</text></g><g stroke-linecap="round"><g transform="translate(667.7427545363581 605.203197999375) rotate(0 -128.75712024195377 27.052811129099155)"><path d="M1.16 -0.99 C-17.37 7.88, -69 49.14, -112.2 53.5 C-155.4 57.86, -233.75 29.71, -258.06 25.16 M0.31 1.11 C-18.28 10.09, -69.95 50.51, -113.11 54.67 C-156.28 58.84, -234.58 30.62, -258.67 26.09" stroke="#f08c00" stroke-width="4" fill="none"></path></g><g transform="translate(667.7427545363581 605.203197999375) rotate(0 -128.75712024195377 27.052811129099155)"><path d="M-233.78 23.82 C-240.76 24.66, -245.61 25.52, -258.67 26.09 M-233.78 23.82 C-240.05 23.5, -246.48 24.48, -258.67 26.09" stroke="#f08c00" stroke-width="4" fill="none"></path></g><g transform="translate(667.7427545363581 605.203197999375) rotate(0 -128.75712024195377 27.052811129099155)"><path d="M-238.14 40.36 C-244.23 37.6, -248.15 34.92, -258.67 26.09 M-238.14 40.36 C-243.41 36.08, -248.81 33.13, -258.67 26.09" stroke="#f08c00" stroke-width="4" fill="none"></path></g></g><mask></mask><g stroke-linecap="round" transform="translate(10 432.112352315684) rotate(0 67.74758486343302 35.68206744492369)"><path d="M17.84 0 C50.11 -3.63, 88.24 -3.37, 117.65 0 C131.73 -0.11, 132.98 7.91, 135.5 17.84 C135.06 29.8, 135.12 47.06, 135.5 53.52 C137.21 64.26, 126.41 74.55, 117.65 71.36 C93.47 75.46, 66.88 70.98, 17.84 71.36 C6.52 67.79, -2.76 66.36, 0 53.52 C-3.02 48.32, -1.83 40.92, 0 17.84 C3.16 7.73, 4.79 0.91, 17.84 0" stroke="none" stroke-width="0" fill="#a5d8ff"></path><path d="M17.84 0 C47.25 1.55, 79.41 1.02, 117.65 0 M17.84 0 C52.26 0.06, 86.83 0.5, 117.65 0 M117.65 0 C129.4 -1.91, 136.4 7.6, 135.5 17.84 M117.65 0 C130.69 1.45, 136.17 6.33, 135.5 17.84 M135.5 17.84 C136.91 26.86, 137.19 32.92, 135.5 53.52 M135.5 17.84 C134.44 24.83, 135.27 33.16, 135.5 53.52 M135.5 53.52 C137.06 67.1, 127.81 72.52, 117.65 71.36 M135.5 53.52 C136.72 63.46, 131.49 69.63, 117.65 71.36 M117.65 71.36 C93.85 71.92, 72.34 69.28, 17.84 71.36 M117.65 71.36 C88.74 70.85, 57.73 72.08, 17.84 71.36 M17.84 71.36 C5.88 70.12, -1.07 64.04, 0 53.52 M17.84 71.36 C7.13 70.15, 0.05 63.33, 0 53.52 M0 53.52 C0.17 40.14, 0.74 28.95, 0 17.84 M0 53.52 C-0.18 41.99, 0.48 31.9, 0 17.84 M0 17.84 C-0.28 7.63, 4.77 -1.03, 17.84 0 M0 17.84 C-0.5 4.84, 6.77 0.63, 17.84 0" stroke="#1971c2" stroke-width="4" fill="none"></path></g><g transform="translate(21.57050280166544 442.79441976060764) rotate(0 56.17708206176758 25)"><text x="56.17708206176758" y="17.619999999999997" font-family="Excalifont, Xiaolai, sans-serif, Segoe UI Emoji" font-size="20px" fill="#1971c2" text-anchor="middle" style="white-space: pre;" direction="ltr" dominant-baseline="alphabetic">Accidental</text><text x="56.17708206176758" y="42.62" font-family="Excalifont, Xiaolai, sans-serif, Segoe UI Emoji" font-size="20px" fill="#1971c2" text-anchor="middle" style="white-space: pre;" direction="ltr" dominant-baseline="alphabetic">Data Leaks</text></g><g stroke-linecap="round"><g transform="translate(202.30896813513283 422.8035692329038) rotate(0 -24.71430266399784 19.957476828826827)"><path d="M0.09 0.47 C-8.13 7.17, -41.09 33.19, -49.33 39.67 M-0.53 0.24 C-8.78 6.81, -41.35 32.21, -49.52 38.82" stroke="#f08c00" stroke-width="4" fill="none"></path></g><g transform="translate(202.30896813513283 422.8035692329038) rotate(0 -24.71430266399784 19.957476828826827)"><path d="M-36.42 17.52 C-39.51 24.69, -43.84 30.87, -49.52 38.82 M-36.42 17.52 C-40.6 23.79, -44.28 29.7, -49.52 38.82" stroke="#f08c00" stroke-width="4" fill="none"></path></g><g transform="translate(202.30896813513283 422.8035692329038) rotate(0 -24.71430266399784 19.957476828826827)"><path d="M-25.79 30.92 C-31.96 34.15, -39.42 36.38, -49.52 38.82 M-25.79 30.92 C-33.01 33.34, -39.72 35.44, -49.52 38.82" stroke="#f08c00" stroke-width="4" fill="none"></path></g></g><mask></mask><g stroke-linecap="round"><g transform="translate(552.8614703534901 253.34255365557655) rotate(0 25.27648799944535 1.3281079907253002)"><path d="M0.55 -0.91 C9.13 -0.3, 42.93 2.98, 51.17 3.56 M-0.61 1.23 C7.86 1.48, 42.22 1.29, 50.47 1.69" stroke="#1971c2" stroke-width="4" fill="none"></path></g><g transform="translate(552.8614703534901 253.34255365557655) rotate(0 25.27648799944535 1.3281079907253002)"><path d="M26.83 9.83 C31.91 8.25, 40.8 4.04, 50.47 1.69 M26.83 9.83 C33.83 7.33, 39.59 5.91, 50.47 1.69" stroke="#1971c2" stroke-width="4" fill="none"></path></g><g transform="translate(552.8614703534901 253.34255365557655) rotate(0 25.27648799944535 1.3281079907253002)"><path d="M27.13 -7.26 C32.11 -4.08, 40.92 -3.53, 50.47 1.69 M27.13 -7.26 C33.94 -5.38, 39.63 -2.4, 50.47 1.69" stroke="#1971c2" stroke-width="4" fill="none"></path></g></g><mask></mask><g stroke-linecap="round" transform="translate(610.549450939936 220.56510045916488) rotate(0 88.72747361344909 36.277726728428604)"><path d="M18.14 0 C48.52 2.3, 83.43 -4.15, 159.32 0 C168.2 -0.88, 174.77 5.28, 177.45 18.14 C176.2 26.71, 179.34 30.02, 177.45 54.42 C180.17 68.78, 173.58 72.91, 159.32 72.56 C122.09 67.95, 87.31 74.13, 18.14 72.56 C5.75 69.58, 1.54 69.41, 0 54.42 C1.68 37.9, -1.64 22.59, 0 18.14 C0.16 6.96, 5.28 -3.31, 18.14 0" stroke="none" stroke-width="0" fill="#a5d8ff"></path><path d="M18.14 0 C52.11 0.23, 85.38 0.79, 159.32 0 M18.14 0 C73.54 0.89, 126.86 1.52, 159.32 0 M159.32 0 C172.9 0.13, 178.5 5.48, 177.45 18.14 M159.32 0 C173.54 -2.16, 176.11 4.96, 177.45 18.14 M177.45 18.14 C176.35 29.35, 177.04 38.55, 177.45 54.42 M177.45 18.14 C176.53 26.73, 176.84 34.1, 177.45 54.42 M177.45 54.42 C177.79 65.28, 172.25 73.57, 159.32 72.56 M177.45 54.42 C177.64 64.71, 172.77 71.5, 159.32 72.56 M159.32 72.56 C119.06 70.34, 78.18 72.4, 18.14 72.56 M159.32 72.56 C120.17 72.51, 81.3 71.86, 18.14 72.56 M18.14 72.56 C4.28 71.32, -1.15 65.33, 0 54.42 M18.14 72.56 C3.75 71.11, 1.64 65.26, 0 54.42 M0 54.42 C-1.19 41.82, 1.5 29.77, 0 18.14 M0 54.42 C-0.7 46.28, -0.58 39.55, 0 18.14 M0 18.14 C-0.87 6.99, 6.95 -0.51, 18.14 0 M0 18.14 C-1.48 8.18, 6.07 -0.12, 18.14 0" stroke="#1971c2" stroke-width="4" fill="none"></path></g><g transform="translate(636.1206745533851 244.34282718759349) rotate(0 63.15625 12.5)"><text x="63.15625" y="17.619999999999997" font-family="Excalifont, Xiaolai, sans-serif, Segoe UI Emoji" font-size="20px" fill="#1971c2" text-anchor="middle" style="white-space: pre;" direction="ltr" dominant-baseline="alphabetic">Notifications</text></g></svg>